 
<svg version="1.1" id="icon" xmlns="http://www.w3.org/2000/svg" xmlns:xlink="http://www.w3.org/1999/xlink" x="0px" y="0px"
	 viewBox="0 0 217.5 113.3" style="enable-background:new 0 0 217.5 113.3;" xml:space="preserve">
<style type="text/css">
	.st0{fill:#FAF1E3;}
	.st1{fill:#B5A496;}
	.st2{fill:none;stroke:#151314;stroke-width:7;stroke-miterlimit:10;}
	.st3{fill:#F7CF7A;stroke:#151314;stroke-width:5;stroke-miterlimit:10;}
	.st4{fill:#B5A496;stroke:#151314;stroke-width:6;stroke-miterlimit:10;}
	.st5{fill:#FFFFFF;stroke:#151314;stroke-width:6;stroke-miterlimit:10;}
	.st6{fill:none;stroke:#151314;stroke-width:6;stroke-miterlimit:10;}
	.st7{fill:none;stroke:#151314;stroke-width:3;stroke-miterlimit:10;}
	@media screen and (max-width: 140px) {
	  #tablet {
	  	display: none;
	  }
	}

	@media screen and (max-width: 100px) {
		  #body, #nose, #fly, #tablet, #eyes {
		  fill:none;
		  }
		  .st0, .st1, .st2, .st3, .st4, .st6, .st7 {
				fill:none;
		  } 
	}

	@keyframes FlyMove {
		0% {
			transform-origin: 64% 30%;
			transform: rotate(0deg);
		}
		50% {
			transform-origin: 64% 30%;
			transform: rotate(-50deg);
		}
		100% {
			transform-origin: 64% 30%;
			transform: rotate(0deg);
		}
	}

	  
		#icon.animate #fly {
			animation: FlyMove 0.8s ease-out 3;
		}
	 

</style>
<script>
	var iconClick = document.getElementById("icon");  
	iconClick.addEventListener('click', function (e) {
    this.classList.toggle("animate");
  });
</script>

<g id="icon">
	<g>

		<g id="body">
			<g>
				<g>
					<path class="st0" d="M148.5,5.2l1,100.5c0,0-69,16-80-53V6.3H70l39,25L148.5,5.2L148.5,5.2z"/>
					<path class="st1" d="M69.5,4.8c0,0,38,12,79,0v0.5h0l-39.5,26l-39-25h-0.5V4.8z"/>
				</g>
				<g>
					<path class="st2" d="M148.5,5.2l1,100.5c0,0-69,16-80-53V6.3V4.8c0,0,38,12,79,0V5.2z"/>
					<polyline class="st2" points="148.5,5.2 109,31.3 70,6.3 					"/>
				</g>
			</g>
		</g>
		<path id="nose" class="st3" d="M109.1,62.8l9.2-11.7c-6-4.8-11.8-4.6-17.5,0L109.1,62.8z"/>
		<g id="fly">
			<path class="st4" d="M148.8,9.9l0.2,100c0,0-40-7.9-40.1-39.9L148.8,9.9z"/>
			<g id="tablet">
				<path class="st4" d="M110.3,78.4c0,0,11.7,1,18.7-5c0,0,9.7,5.4,19.9,0.4"/>
				<path class="st4" d="M121.9,96.6l11.4-6.6l0.8-0.6c0,0,8.5,2.8,13.5,2"/>
			</g>
		</g>
		<g id="eyes">
			<circle class="st5" cx="88.5" cy="36.8" r="19"/>
			<circle class="st5" cx="129.5" cy="36.8" r="19"/>
			<path class="st6" d="M80.5,41.8c0-13.1,17-13.1,17,0"/>
			<path class="st6" d="M120.5,41.8c0-13.1,17-13.1,17,0"/>
		</g>
		<g id="legs">
			<path class="st7" d="M116,111.8h-16c1.2-1.8,4.3-3,8-3S114.8,110,116,111.8z"/>
			<path class="st7" d="M141,111.8h-16c1.2-1.8,4.3-3,8-3S139.8,110,141,111.8z"/>
		</g>
		
	</g>
</g>
</svg>
